<?xml version="1.0" encoding="utf-8"?>
<!-- Generator: Adobe Illustrator 19.0.0, SVG Export Plug-In . SVG Version: 6.00 Build 0)  -->
<svg version="1.1" xmlns="http://www.w3.org/2000/svg" xmlns:xlink="http://www.w3.org/1999/xlink" x="0px" y="0px"
	 viewBox="-195 195.9 91 91" style="enable-background:new -195 195.9 91 91;" xml:space="preserve">
<style type="text/css">
	.st0{display:none;}
	.st1{display:inline;}
	.st2{fill:#3496F7;}
	.st3{fill:none;stroke:#FFFFFF;stroke-miterlimit:10;}
	.st4{fill:none;stroke:#FFFFFF;stroke-miterlimit:10;stroke-dasharray:3.9412,3.9412;}
	.st5{fill:#FFFFFF;}
	.st6{display:inline;fill:#FFFFFF;}
	.st7{font-family:'OpenSans-Bold';}
	.st8{font-size:54.2776px;}
	.st9{letter-spacing:-4;}
</style>
<g id="Layer_1" class="st0">
	<g class="st1">
		<path class="st2" d="M-109.2,286.9h-80.7c-2.8,0-5.2-2.3-5.2-5.2v-80.7c0-2.8,2.3-5.2,5.2-5.2h80.7c2.8,0,5.2,2.3,5.2,5.2v80.7
			C-104,284.6-106.3,286.9-109.2,286.9z"/>
		<g>
			<g>
				<line class="st3" x1="-195" y1="219.6" x2="-193" y2="219.6"/>
				<line class="st4" x1="-189.1" y1="219.6" x2="-128" y2="219.6"/>
				<line class="st3" x1="-126" y1="219.6" x2="-124" y2="219.6"/>
			</g>
		</g>
		<g>
			<g>
				<line class="st3" x1="-175" y1="262.3" x2="-173" y2="262.3"/>
				<line class="st4" x1="-169.1" y1="262.3" x2="-108" y2="262.3"/>
				<line class="st3" x1="-106" y1="262.3" x2="-104" y2="262.3"/>
			</g>
		</g>
		<g>
			<g>
				<line class="st3" x1="-184.8" y1="196.1" x2="-184.8" y2="198.1"/>
				<line class="st4" x1="-184.8" y1="202" x2="-184.8" y2="263.1"/>
				<line class="st3" x1="-184.8" y1="265.1" x2="-184.8" y2="267.1"/>
			</g>
		</g>
		<g>
			<g>
				<line class="st3" x1="-112" y1="195.9" x2="-112" y2="197.9"/>
				<line class="st4" x1="-112" y1="201.8" x2="-112" y2="262.9"/>
				<line class="st3" x1="-112" y1="264.9" x2="-112" y2="266.9"/>
			</g>
		</g>
		<g>
			<g>
				<line class="st3" x1="-144.2" y1="216.1" x2="-144.2" y2="218.1"/>
				<line class="st4" x1="-144.2" y1="222" x2="-144.2" y2="283.1"/>
				<line class="st3" x1="-144.2" y1="285.1" x2="-144.2" y2="287.1"/>
			</g>
		</g>
	</g>
	<g class="st1">
		<path class="st5" d="M-152,249.6c0,3.5-1.3,6.3-3.8,8.3c-2.5,2-6,3-10.5,3c-4.1,0-7.8-0.8-11-2.3v-7.6c2.6,1.2,4.8,2,6.6,2.5
			c1.8,0.5,3.5,0.7,5,0.7c1.8,0,3.2-0.3,4.1-1c1-0.7,1.4-1.7,1.4-3.1c0-0.8-0.2-1.4-0.6-2c-0.4-0.6-1-1.2-1.9-1.7
			c-0.8-0.5-2.5-1.4-5-2.6c-2.4-1.1-4.1-2.2-5.3-3.2c-1.2-1-2.1-2.2-2.8-3.6c-0.7-1.4-1.1-3-1.1-4.8c0-3.4,1.2-6.1,3.5-8.1
			c2.3-2,5.5-2.9,9.6-2.9c2,0,3.9,0.2,5.8,0.7c1.8,0.5,3.7,1.1,5.7,2l-2.7,6.4c-2.1-0.8-3.8-1.4-5.1-1.8c-1.4-0.3-2.7-0.5-4-0.5
			c-1.6,0-2.7,0.4-3.6,1.1c-0.8,0.7-1.2,1.7-1.2,2.8c0,0.7,0.2,1.4,0.5,1.9c0.3,0.5,0.9,1.1,1.6,1.6c0.7,0.5,2.5,1.4,5.2,2.7
			c3.6,1.7,6.1,3.5,7.4,5.2C-152.7,244.9-152,247-152,249.6z"/>
		<path class="st5" d="M-123.5,260.3h-8.2v-31.9h-10.5v-6.8h29.3v6.8h-10.5V260.3z"/>
	</g>
</g>
<g id="Calque_2">
	<g>
		<path class="st2" d="M-109.2,286.9h-80.7c-2.8,0-5.2-2.3-5.2-5.2v-80.7c0-2.8,2.3-5.2,5.2-5.2h80.7c2.8,0,5.2,2.3,5.2,5.2v80.7
			C-104,284.6-106.3,286.9-109.2,286.9z"/>
		<g>
			<g>
				<line class="st3" x1="-195" y1="219.6" x2="-193" y2="219.6"/>
				<line class="st4" x1="-189.1" y1="219.6" x2="-128" y2="219.6"/>
				<line class="st3" x1="-126" y1="219.6" x2="-124" y2="219.6"/>
			</g>
		</g>
		<g>
			<g>
				<line class="st3" x1="-175" y1="262.3" x2="-173" y2="262.3"/>
				<line class="st4" x1="-169.1" y1="262.3" x2="-108" y2="262.3"/>
				<line class="st3" x1="-106" y1="262.3" x2="-104" y2="262.3"/>
			</g>
		</g>
		<g>
			<g>
				<line class="st3" x1="-184.8" y1="196.1" x2="-184.8" y2="198.1"/>
				<line class="st4" x1="-184.8" y1="202" x2="-184.8" y2="263.1"/>
				<line class="st3" x1="-184.8" y1="265.1" x2="-184.8" y2="267.1"/>
			</g>
		</g>
		<g>
			<g>
				<line class="st3" x1="-112" y1="195.9" x2="-112" y2="197.9"/>
				<line class="st4" x1="-112" y1="201.8" x2="-112" y2="262.9"/>
				<line class="st3" x1="-112" y1="264.9" x2="-112" y2="266.9"/>
			</g>
		</g>
		<g>
			<g>
				<line class="st3" x1="-144.2" y1="216.1" x2="-144.2" y2="218.1"/>
				<line class="st4" x1="-144.2" y1="222" x2="-144.2" y2="283.1"/>
				<line class="st3" x1="-144.2" y1="285.1" x2="-144.2" y2="287.1"/>
			</g>
		</g>
	</g>
	<g>
		<path class="st5" d="M-145.5,240.9c0,6.4-1.6,11.3-4.8,14.8c-3.2,3.4-7.7,5.2-13.7,5.2s-10.5-1.7-13.7-5.2
			c-3.2-3.4-4.8-8.4-4.8-14.8c0-6.4,1.6-11.4,4.8-14.8c3.2-3.4,7.8-5.1,13.7-5.1c6,0,10.5,1.7,13.7,5.1S-145.5,234.5-145.5,240.9z
			 M-173.7,240.9c0,4.3,0.8,7.6,2.5,9.8c1.6,2.2,4.1,3.3,7.4,3.3c6.6,0,9.8-4.4,9.8-13.1c0-8.7-3.3-13.1-9.8-13.1
			c-3.3,0-5.7,1.1-7.4,3.3S-173.7,236.6-173.7,240.9z"/>
		<path class="st5" d="M-141.8,221.6h12.1c5.5,0,9.5,0.8,12,2.3c2.5,1.6,3.7,4.1,3.7,7.5c0,2.3-0.5,4.2-1.6,5.7
			c-1.1,1.5-2.5,2.4-4.3,2.7v0.3c2.5,0.5,4.2,1.6,5.3,3.1c1.1,1.5,1.6,3.5,1.6,6c0,3.5-1.3,6.3-3.8,8.3c-2.6,2-6,3-10.4,3h-14.5
			V221.6z M-133.5,236.9h4.8c2.2,0,3.8-0.3,4.8-1c1-0.7,1.5-1.8,1.5-3.4c0-1.5-0.5-2.5-1.6-3.2s-2.8-1-5.2-1h-4.3V236.9z
			 M-133.5,243.4v10.1h5.4c2.3,0,3.9-0.4,5-1.3c1.1-0.9,1.6-2.2,1.6-4c0-3.2-2.3-4.8-6.9-4.8H-133.5z"/>
	</g>
</g>
<g id="Calque_2_-_copie" class="st0">
	<g class="st1">
		<path class="st2" d="M-109.2,286.9h-80.7c-2.8,0-5.2-2.3-5.2-5.2v-80.7c0-2.8,2.3-5.2,5.2-5.2h80.7c2.8,0,5.2,2.3,5.2,5.2v80.7
			C-104,284.6-106.3,286.9-109.2,286.9z"/>
		<g>
			<g>
				<line class="st3" x1="-195" y1="219.6" x2="-193" y2="219.6"/>
				<line class="st4" x1="-189.1" y1="219.6" x2="-128" y2="219.6"/>
				<line class="st3" x1="-126" y1="219.6" x2="-124" y2="219.6"/>
			</g>
		</g>
		<g>
			<g>
				<line class="st3" x1="-175" y1="262.3" x2="-173" y2="262.3"/>
				<line class="st4" x1="-169.1" y1="262.3" x2="-108" y2="262.3"/>
				<line class="st3" x1="-106" y1="262.3" x2="-104" y2="262.3"/>
			</g>
		</g>
		<g>
			<g>
				<line class="st3" x1="-184.8" y1="196.1" x2="-184.8" y2="198.1"/>
				<line class="st4" x1="-184.8" y1="202" x2="-184.8" y2="263.1"/>
				<line class="st3" x1="-184.8" y1="265.1" x2="-184.8" y2="267.1"/>
			</g>
		</g>
		<g>
			<g>
				<line class="st3" x1="-112" y1="195.9" x2="-112" y2="197.9"/>
				<line class="st4" x1="-112" y1="201.8" x2="-112" y2="262.9"/>
				<line class="st3" x1="-112" y1="264.9" x2="-112" y2="266.9"/>
			</g>
		</g>
		<g>
			<g>
				<line class="st3" x1="-144.2" y1="216.1" x2="-144.2" y2="218.1"/>
				<line class="st4" x1="-144.2" y1="222" x2="-144.2" y2="283.1"/>
				<line class="st3" x1="-144.2" y1="285.1" x2="-144.2" y2="287.1"/>
			</g>
		</g>
	</g>
	<text transform="matrix(1 0 0 1 -185.4959 260.3112)" class="st6 st7 st8 st9">OB</text>
</g>
</svg>
