<?xml version="1.0" encoding="utf-8"?>
<!-- Generator: Adobe Illustrator 19.0.0, SVG Export Plug-In . SVG Version: 6.00 Build 0)  -->
<svg version="1.1" id="Calque_1" xmlns="http://www.w3.org/2000/svg" xmlns:xlink="http://www.w3.org/1999/xlink" x="0px" y="0px"
	 viewBox="-195 195.9 91 91" style="enable-background:new -195 195.9 91 91;" xml:space="preserve">
<style type="text/css">
	.st0{fill:#FFFFFF;}
	.st1{display:none;}
	.st2{display:inline;}
	.st3{fill:#3496F7;}
	.st4{fill:none;stroke:#FFFFFF;stroke-miterlimit:10;}
	.st5{fill:none;stroke:#FFFFFF;stroke-miterlimit:10;stroke-dasharray:3.9412,3.9412;}
</style>
<rect x="-757" y="285.8" class="st0" width="825" height="307"/>
<g id="Layer_1" class="st1">
	<g class="st2">
		<path class="st3" d="M-304.2,482.8h-80.7c-2.8,0-5.2-2.3-5.2-5.2v-80.7c0-2.8,2.3-5.2,5.2-5.2h80.7c2.8,0,5.2,2.3,5.2,5.2v80.7
			C-299,480.5-301.3,482.8-304.2,482.8z"/>
		<g>
			<g>
				<line class="st4" x1="-390" y1="415.5" x2="-388" y2="415.5"/>
				<line class="st5" x1="-384.1" y1="415.5" x2="-323" y2="415.5"/>
				<line class="st4" x1="-321" y1="415.5" x2="-319" y2="415.5"/>
			</g>
		</g>
		<g>
			<g>
				<line class="st4" x1="-370" y1="458.2" x2="-368" y2="458.2"/>
				<line class="st5" x1="-364.1" y1="458.2" x2="-303" y2="458.2"/>
				<line class="st4" x1="-301" y1="458.2" x2="-299" y2="458.2"/>
			</g>
		</g>
		<g>
			<g>
				<line class="st4" x1="-379.8" y1="392" x2="-379.8" y2="394"/>
				<line class="st5" x1="-379.8" y1="397.9" x2="-379.8" y2="459"/>
				<line class="st4" x1="-379.8" y1="461" x2="-379.8" y2="463"/>
			</g>
		</g>
		<g>
			<g>
				<line class="st4" x1="-307" y1="391.8" x2="-307" y2="393.8"/>
				<line class="st5" x1="-307" y1="397.7" x2="-307" y2="458.8"/>
				<line class="st4" x1="-307" y1="460.8" x2="-307" y2="462.8"/>
			</g>
		</g>
		<g>
			<g>
				<line class="st4" x1="-339.2" y1="412" x2="-339.2" y2="414"/>
				<line class="st5" x1="-339.2" y1="417.9" x2="-339.2" y2="479"/>
				<line class="st4" x1="-339.2" y1="481" x2="-339.2" y2="483"/>
			</g>
		</g>
	</g>
	<g class="st2">
		<path class="st0" d="M-347,445.5c0,3.5-1.3,6.3-3.8,8.3s-6,3-10.5,3c-4.1,0-7.8-0.8-11-2.3v-7.6c2.6,1.2,4.8,2,6.6,2.5
			c1.8,0.5,3.5,0.7,5,0.7c1.8,0,3.2-0.3,4.1-1c1-0.7,1.4-1.7,1.4-3.1c0-0.8-0.2-1.4-0.6-2c-0.4-0.6-1-1.2-1.9-1.7
			c-0.8-0.5-2.5-1.4-5-2.6c-2.4-1.1-4.1-2.2-5.3-3.2s-2.1-2.2-2.8-3.6c-0.7-1.4-1.1-3-1.1-4.8c0-3.4,1.2-6.1,3.5-8.1
			c2.3-2,5.5-2.9,9.6-2.9c2,0,3.9,0.2,5.8,0.7c1.8,0.5,3.7,1.1,5.7,2l-2.7,6.4c-2.1-0.8-3.8-1.4-5.1-1.8c-1.4-0.3-2.7-0.5-4-0.5
			c-1.6,0-2.7,0.4-3.6,1.1c-0.8,0.7-1.2,1.7-1.2,2.8c0,0.7,0.2,1.4,0.5,1.9c0.3,0.5,0.9,1.1,1.6,1.6c0.7,0.5,2.5,1.4,5.2,2.7
			c3.6,1.7,6.1,3.5,7.4,5.2C-347.7,440.8-347,442.9-347,445.5z"/>
		<path class="st0" d="M-318.5,456.2h-8.2v-31.9h-10.5v-6.8h29.3v6.8h-10.5v31.9H-318.5z"/>
	</g>
</g>
<g id="Calque_2">
	<g>
		<path class="st3" d="M-304.2,482.8h-80.7c-2.8,0-5.2-2.3-5.2-5.2v-80.7c0-2.8,2.3-5.2,5.2-5.2h80.7c2.8,0,5.2,2.3,5.2,5.2v80.7
			C-299,480.5-301.3,482.8-304.2,482.8z"/>
		<g>
			<g>
				<line class="st4" x1="-390" y1="415.5" x2="-388" y2="415.5"/>
				<line class="st5" x1="-384.1" y1="415.5" x2="-323" y2="415.5"/>
				<line class="st4" x1="-321" y1="415.5" x2="-319" y2="415.5"/>
			</g>
		</g>
		<g>
			<g>
				<line class="st4" x1="-370" y1="458.2" x2="-368" y2="458.2"/>
				<line class="st5" x1="-364.1" y1="458.2" x2="-303" y2="458.2"/>
				<line class="st4" x1="-301" y1="458.2" x2="-299" y2="458.2"/>
			</g>
		</g>
		<g>
			<g>
				<line class="st4" x1="-379.8" y1="392" x2="-379.8" y2="394"/>
				<line class="st5" x1="-379.8" y1="397.9" x2="-379.8" y2="459"/>
				<line class="st4" x1="-379.8" y1="461" x2="-379.8" y2="463"/>
			</g>
		</g>
		<g>
			<g>
				<line class="st4" x1="-307" y1="391.8" x2="-307" y2="393.8"/>
				<line class="st5" x1="-307" y1="397.7" x2="-307" y2="458.8"/>
				<line class="st4" x1="-307" y1="460.8" x2="-307" y2="462.8"/>
			</g>
		</g>
		<g>
			<g>
				<line class="st4" x1="-339.2" y1="412" x2="-339.2" y2="414"/>
				<line class="st5" x1="-339.2" y1="417.9" x2="-339.2" y2="479"/>
				<line class="st4" x1="-339.2" y1="481" x2="-339.2" y2="483"/>
			</g>
		</g>
	</g>
	<g>
		<path class="st0" d="M-340.5,436.8c0,6.4-1.6,11.3-4.8,14.8c-3.2,3.4-7.7,5.2-13.7,5.2s-10.5-1.7-13.7-5.2
			c-3.2-3.4-4.8-8.4-4.8-14.8s1.6-11.4,4.8-14.8c3.2-3.4,7.8-5.1,13.7-5.1c6,0,10.5,1.7,13.7,5.1
			C-342.1,425.4-340.5,430.4-340.5,436.8z M-368.7,436.8c0,4.3,0.8,7.6,2.5,9.8c1.6,2.2,4.1,3.3,7.4,3.3c6.6,0,9.8-4.4,9.8-13.1
			s-3.3-13.1-9.8-13.1c-3.3,0-5.7,1.1-7.4,3.3C-367.9,429.2-368.7,432.5-368.7,436.8z"/>
		<path class="st0" d="M-336.8,417.5h12.1c5.5,0,9.5,0.8,12,2.3c2.5,1.6,3.7,4.1,3.7,7.5c0,2.3-0.5,4.2-1.6,5.7s-2.5,2.4-4.3,2.7
			v0.3c2.5,0.5,4.2,1.6,5.3,3.1s1.6,3.5,1.6,6c0,3.5-1.3,6.3-3.8,8.3c-2.6,2-6,3-10.4,3h-14.5L-336.8,417.5L-336.8,417.5z
			 M-328.5,432.8h4.8c2.2,0,3.8-0.3,4.8-1c1-0.7,1.5-1.8,1.5-3.4c0-1.5-0.5-2.5-1.6-3.2c-1.1-0.7-2.8-1-5.2-1h-4.3V432.8z
			 M-328.5,439.3v10.1h5.4c2.3,0,3.9-0.4,5-1.3c1.1-0.9,1.6-2.2,1.6-4c0-3.2-2.3-4.8-6.9-4.8H-328.5z"/>
	</g>
</g>
<g id="Calque_2_-_copie" class="st1">
	<g class="st2">
		<path class="st3" d="M-304.2,482.8h-80.7c-2.8,0-5.2-2.3-5.2-5.2v-80.7c0-2.8,2.3-5.2,5.2-5.2h80.7c2.8,0,5.2,2.3,5.2,5.2v80.7
			C-299,480.5-301.3,482.8-304.2,482.8z"/>
		<g>
			<g>
				<line class="st4" x1="-390" y1="415.5" x2="-388" y2="415.5"/>
				<line class="st5" x1="-384.1" y1="415.5" x2="-323" y2="415.5"/>
				<line class="st4" x1="-321" y1="415.5" x2="-319" y2="415.5"/>
			</g>
		</g>
		<g>
			<g>
				<line class="st4" x1="-370" y1="458.2" x2="-368" y2="458.2"/>
				<line class="st5" x1="-364.1" y1="458.2" x2="-303" y2="458.2"/>
				<line class="st4" x1="-301" y1="458.2" x2="-299" y2="458.2"/>
			</g>
		</g>
		<g>
			<g>
				<line class="st4" x1="-379.8" y1="392" x2="-379.8" y2="394"/>
				<line class="st5" x1="-379.8" y1="397.9" x2="-379.8" y2="459"/>
				<line class="st4" x1="-379.8" y1="461" x2="-379.8" y2="463"/>
			</g>
		</g>
		<g>
			<g>
				<line class="st4" x1="-307" y1="391.8" x2="-307" y2="393.8"/>
				<line class="st5" x1="-307" y1="397.7" x2="-307" y2="458.8"/>
				<line class="st4" x1="-307" y1="460.8" x2="-307" y2="462.8"/>
			</g>
		</g>
		<g>
			<g>
				<line class="st4" x1="-339.2" y1="412" x2="-339.2" y2="414"/>
				<line class="st5" x1="-339.2" y1="417.9" x2="-339.2" y2="479"/>
				<line class="st4" x1="-339.2" y1="481" x2="-339.2" y2="483"/>
			</g>
		</g>
	</g>
	
		<text transform="matrix(1 0 0 1 -380.4959 456.2012)" style="display:inline;fill:#FFFFFF; font-family:'OpenSans-Bold'; font-size:54.2776px; letter-spacing:-3;">OB</text>
</g>
</svg>
