<?xml version="1.0" encoding="utf-8"?>
<!-- Generator: Adobe Illustrator 19.0.0, SVG Export Plug-In . SVG Version: 6.00 Build 0)  -->
<svg version="1.1" id="Calque_1" xmlns="http://www.w3.org/2000/svg" xmlns:xlink="http://www.w3.org/1999/xlink" x="0px" y="0px"
	 viewBox="-505 195.9 711 91" style="enable-background:new -505 195.9 711 91;" xml:space="preserve">
<style type="text/css">
	.st0{fill:#3496F7;}
	.st1{fill:none;stroke:#FFFFFF;stroke-miterlimit:10;}
	.st2{fill:none;stroke:#FFFFFF;stroke-miterlimit:10;stroke-dasharray:3.9412,3.9412;}
	.st3{fill:#FFFFFF;}
	.st4{display:none;}
	.st5{display:inline;}
</style>
<g id="Layer_1">
	<g>
		<path class="st0" d="M-109.1,287h-80.7c-2.8,0-5.2-2.3-5.2-5.2v-80.7c0-2.8,2.3-5.2,5.2-5.2h80.7c2.8,0,5.2,2.3,5.2,5.2v80.7
			C-103.9,284.7-106.2,287-109.1,287z"/>
		<g>
			<g>
				<line class="st1" x1="-194.9" y1="219.7" x2="-192.9" y2="219.7"/>
				<line class="st2" x1="-189" y1="219.7" x2="-127.9" y2="219.7"/>
				<line class="st1" x1="-125.9" y1="219.7" x2="-123.9" y2="219.7"/>
			</g>
		</g>
		<g>
			<g>
				<line class="st1" x1="-174.9" y1="262.4" x2="-172.9" y2="262.4"/>
				<line class="st2" x1="-169" y1="262.4" x2="-107.9" y2="262.4"/>
				<line class="st1" x1="-105.9" y1="262.4" x2="-103.9" y2="262.4"/>
			</g>
		</g>
		<g>
			<g>
				<line class="st1" x1="-184.7" y1="196.2" x2="-184.7" y2="198.2"/>
				<line class="st2" x1="-184.7" y1="202.1" x2="-184.7" y2="263.2"/>
				<line class="st1" x1="-184.7" y1="265.2" x2="-184.7" y2="267.2"/>
			</g>
		</g>
		<g>
			<g>
				<line class="st1" x1="-111.9" y1="196" x2="-111.9" y2="198"/>
				<line class="st2" x1="-111.9" y1="201.9" x2="-111.9" y2="263"/>
				<line class="st1" x1="-111.9" y1="265" x2="-111.9" y2="267"/>
			</g>
		</g>
		<g>
			<g>
				<line class="st1" x1="-144.1" y1="216.2" x2="-144.1" y2="218.2"/>
				<line class="st2" x1="-144.1" y1="222.1" x2="-144.1" y2="283.2"/>
				<line class="st1" x1="-144.1" y1="285.2" x2="-144.1" y2="287.2"/>
			</g>
		</g>
	</g>
	<g>
		<path class="st3" d="M-151.9,249.7c0,3.5-1.3,6.3-3.8,8.3c-2.5,2-6,3-10.5,3c-4.1,0-7.8-0.8-11-2.3v-7.6c2.6,1.2,4.8,2,6.6,2.5
			s3.5,0.7,5,0.7c1.8,0,3.2-0.3,4.1-1c1-0.7,1.4-1.7,1.4-3.1c0-0.8-0.2-1.4-0.6-2c-0.4-0.6-1-1.2-1.9-1.7c-0.8-0.5-2.5-1.4-5-2.6
			c-2.4-1.1-4.1-2.2-5.3-3.2s-2.1-2.2-2.8-3.6c-0.7-1.4-1.1-3-1.1-4.8c0-3.4,1.2-6.1,3.5-8.1s5.5-2.9,9.6-2.9c2,0,3.9,0.2,5.8,0.7
			c1.8,0.5,3.7,1.1,5.7,2l-2.7,6.4c-2.1-0.8-3.8-1.4-5.1-1.8c-1.4-0.3-2.7-0.5-4-0.5c-1.6,0-2.7,0.4-3.6,1.1
			c-0.8,0.7-1.2,1.7-1.2,2.8c0,0.7,0.2,1.4,0.5,1.9s0.9,1.1,1.6,1.6c0.7,0.5,2.5,1.4,5.2,2.7c3.6,1.7,6.1,3.5,7.4,5.2
			C-152.6,245-151.9,247.1-151.9,249.7z"/>
		<path class="st3" d="M-123.4,260.4h-8.2v-31.9h-10.5v-6.8h29.3v6.8h-10.5v31.9H-123.4z"/>
	</g>
</g>
<g id="Calque_2" class="st4">
	<g class="st5">
		<path class="st0" d="M-304.2,482.8h-80.7c-2.8,0-5.2-2.3-5.2-5.2v-80.7c0-2.8,2.3-5.2,5.2-5.2h80.7c2.8,0,5.2,2.3,5.2,5.2v80.7
			C-299,480.5-301.3,482.8-304.2,482.8z"/>
		<g>
			<g>
				<line class="st1" x1="-390" y1="415.5" x2="-388" y2="415.5"/>
				<line class="st2" x1="-384.1" y1="415.5" x2="-323" y2="415.5"/>
				<line class="st1" x1="-321" y1="415.5" x2="-319" y2="415.5"/>
			</g>
		</g>
		<g>
			<g>
				<line class="st1" x1="-370" y1="458.2" x2="-368" y2="458.2"/>
				<line class="st2" x1="-364.1" y1="458.2" x2="-303" y2="458.2"/>
				<line class="st1" x1="-301" y1="458.2" x2="-299" y2="458.2"/>
			</g>
		</g>
		<g>
			<g>
				<line class="st1" x1="-379.8" y1="392" x2="-379.8" y2="394"/>
				<line class="st2" x1="-379.8" y1="397.9" x2="-379.8" y2="459"/>
				<line class="st1" x1="-379.8" y1="461" x2="-379.8" y2="463"/>
			</g>
		</g>
		<g>
			<g>
				<line class="st1" x1="-307" y1="391.8" x2="-307" y2="393.8"/>
				<line class="st2" x1="-307" y1="397.7" x2="-307" y2="458.8"/>
				<line class="st1" x1="-307" y1="460.8" x2="-307" y2="462.8"/>
			</g>
		</g>
		<g>
			<g>
				<line class="st1" x1="-339.2" y1="412" x2="-339.2" y2="414"/>
				<line class="st2" x1="-339.2" y1="417.9" x2="-339.2" y2="479"/>
				<line class="st1" x1="-339.2" y1="481" x2="-339.2" y2="483"/>
			</g>
		</g>
	</g>
	
		<text transform="matrix(1 0 0 1 -380.4959 456.2012)" style="display:inline;fill:#FFFFFF; font-family:'OpenSans-Bold'; font-size:54.2776px; letter-spacing:-3;">OB</text>
</g>
<g id="Calque_2_-_copie" class="st4">
	<g class="st5">
		<path class="st0" d="M-304.2,482.8h-80.7c-2.8,0-5.2-2.3-5.2-5.2v-80.7c0-2.8,2.3-5.2,5.2-5.2h80.7c2.8,0,5.2,2.3,5.2,5.2v80.7
			C-299,480.5-301.3,482.8-304.2,482.8z"/>
		<g>
			<g>
				<line class="st1" x1="-390" y1="415.5" x2="-388" y2="415.5"/>
				<line class="st2" x1="-384.1" y1="415.5" x2="-323" y2="415.5"/>
				<line class="st1" x1="-321" y1="415.5" x2="-319" y2="415.5"/>
			</g>
		</g>
		<g>
			<g>
				<line class="st1" x1="-370" y1="458.2" x2="-368" y2="458.2"/>
				<line class="st2" x1="-364.1" y1="458.2" x2="-303" y2="458.2"/>
				<line class="st1" x1="-301" y1="458.2" x2="-299" y2="458.2"/>
			</g>
		</g>
		<g>
			<g>
				<line class="st1" x1="-379.8" y1="392" x2="-379.8" y2="394"/>
				<line class="st2" x1="-379.8" y1="397.9" x2="-379.8" y2="459"/>
				<line class="st1" x1="-379.8" y1="461" x2="-379.8" y2="463"/>
			</g>
		</g>
		<g>
			<g>
				<line class="st1" x1="-307" y1="391.8" x2="-307" y2="393.8"/>
				<line class="st2" x1="-307" y1="397.7" x2="-307" y2="458.8"/>
				<line class="st1" x1="-307" y1="460.8" x2="-307" y2="462.8"/>
			</g>
		</g>
		<g>
			<g>
				<line class="st1" x1="-339.2" y1="412" x2="-339.2" y2="414"/>
				<line class="st2" x1="-339.2" y1="417.9" x2="-339.2" y2="479"/>
				<line class="st1" x1="-339.2" y1="481" x2="-339.2" y2="483"/>
			</g>
		</g>
	</g>
	
		<text transform="matrix(1 0 0 1 -380.4959 456.2012)" style="display:inline;fill:#FFFFFF; font-family:'OpenSans-Bold'; font-size:54.2776px; letter-spacing:-3;">OB</text>
</g>
</svg>
