<?xml version="1.0" encoding="utf-8"?>
<!-- Generator: Adobe Illustrator 19.0.0, SVG Export Plug-In . SVG Version: 6.00 Build 0)  -->
<svg version="1.1" xmlns="http://www.w3.org/2000/svg" xmlns:xlink="http://www.w3.org/1999/xlink" x="0px" y="0px"
	 viewBox="-195 195.9 91 91" style="enable-background:new -195 195.9 91 91;" xml:space="preserve">
<style type="text/css">
	.st0{fill:#3496F7;}
	.st1{fill:none;stroke:#FFFFFF;stroke-miterlimit:10;}
	.st2{fill:none;stroke:#FFFFFF;stroke-miterlimit:10;stroke-dasharray:3.9412,3.9412;}
	.st3{fill:#FFFFFF;}
	.st4{font-family:'OpenSans-Bold';}
	.st5{font-size:54.2776px;}
	.st6{letter-spacing:6;}
	.st7{display:none;}
	.st8{display:inline;}
	.st9{display:inline;fill:#FFFFFF;}
	.st10{letter-spacing:-4;}
</style>
<g id="Layer_1">
	<g>
		<path class="st0" d="M-109.2,286.9h-80.7c-2.8,0-5.2-2.3-5.2-5.2v-80.7c0-2.8,2.3-5.2,5.2-5.2h80.7c2.8,0,5.2,2.3,5.2,5.2v80.7
			C-104,284.6-106.3,286.9-109.2,286.9z"/>
		<g>
			<g>
				<line class="st1" x1="-195" y1="219.6" x2="-193" y2="219.6"/>
				<line class="st2" x1="-189.1" y1="219.6" x2="-128" y2="219.6"/>
				<line class="st1" x1="-126" y1="219.6" x2="-124" y2="219.6"/>
			</g>
		</g>
		<g>
			<g>
				<line class="st1" x1="-175" y1="262.3" x2="-173" y2="262.3"/>
				<line class="st2" x1="-169.1" y1="262.3" x2="-108" y2="262.3"/>
				<line class="st1" x1="-106" y1="262.3" x2="-104" y2="262.3"/>
			</g>
		</g>
		<g>
			<g>
				<line class="st1" x1="-184.8" y1="196.1" x2="-184.8" y2="198.1"/>
				<line class="st2" x1="-184.8" y1="202" x2="-184.8" y2="263.1"/>
				<line class="st1" x1="-184.8" y1="265.1" x2="-184.8" y2="267.1"/>
			</g>
		</g>
		<g>
			<g>
				<line class="st1" x1="-112" y1="195.9" x2="-112" y2="197.9"/>
				<line class="st2" x1="-112" y1="201.8" x2="-112" y2="262.9"/>
				<line class="st1" x1="-112" y1="264.9" x2="-112" y2="266.9"/>
			</g>
		</g>
		<g>
			<g>
				<line class="st1" x1="-144.2" y1="216.1" x2="-144.2" y2="218.1"/>
				<line class="st2" x1="-144.2" y1="222" x2="-144.2" y2="283.1"/>
				<line class="st1" x1="-144.2" y1="285.1" x2="-144.2" y2="287.1"/>
			</g>
		</g>
	</g>
	<text transform="matrix(1 0 0 1 -179.7538 260.3112)" class="st3 st4 st5 st6">ST</text>
</g>
<g id="Calque_2" class="st7">
	<g class="st8">
		<path class="st0" d="M-109.2,286.9h-80.7c-2.8,0-5.2-2.3-5.2-5.2v-80.7c0-2.8,2.3-5.2,5.2-5.2h80.7c2.8,0,5.2,2.3,5.2,5.2v80.7
			C-104,284.6-106.3,286.9-109.2,286.9z"/>
		<g>
			<g>
				<line class="st1" x1="-195" y1="219.6" x2="-193" y2="219.6"/>
				<line class="st2" x1="-189.1" y1="219.6" x2="-128" y2="219.6"/>
				<line class="st1" x1="-126" y1="219.6" x2="-124" y2="219.6"/>
			</g>
		</g>
		<g>
			<g>
				<line class="st1" x1="-175" y1="262.3" x2="-173" y2="262.3"/>
				<line class="st2" x1="-169.1" y1="262.3" x2="-108" y2="262.3"/>
				<line class="st1" x1="-106" y1="262.3" x2="-104" y2="262.3"/>
			</g>
		</g>
		<g>
			<g>
				<line class="st1" x1="-184.8" y1="196.1" x2="-184.8" y2="198.1"/>
				<line class="st2" x1="-184.8" y1="202" x2="-184.8" y2="263.1"/>
				<line class="st1" x1="-184.8" y1="265.1" x2="-184.8" y2="267.1"/>
			</g>
		</g>
		<g>
			<g>
				<line class="st1" x1="-112" y1="195.9" x2="-112" y2="197.9"/>
				<line class="st2" x1="-112" y1="201.8" x2="-112" y2="262.9"/>
				<line class="st1" x1="-112" y1="264.9" x2="-112" y2="266.9"/>
			</g>
		</g>
		<g>
			<g>
				<line class="st1" x1="-144.2" y1="216.1" x2="-144.2" y2="218.1"/>
				<line class="st2" x1="-144.2" y1="222" x2="-144.2" y2="283.1"/>
				<line class="st1" x1="-144.2" y1="285.1" x2="-144.2" y2="287.1"/>
			</g>
		</g>
	</g>
	<text transform="matrix(1 0 0 1 -185.4959 260.3112)" class="st9 st4 st5 st10">OB</text>
</g>
</svg>
