<?xml version="1.0" encoding="utf-8"?>
<!-- Generator: Adobe Illustrator 19.0.0, SVG Export Plug-In . SVG Version: 6.00 Build 0)  -->
<svg version="1.1" xmlns="http://www.w3.org/2000/svg" xmlns:xlink="http://www.w3.org/1999/xlink" x="0px" y="0px"
	 viewBox="-195 195.9 91 91" style="enable-background:new -195 195.9 91 91;" xml:space="preserve">
<style type="text/css">
	.st0{fill:#3496F7;}
	.st1{fill:none;stroke:#FFFFFF;stroke-miterlimit:10;}
	.st2{fill:none;stroke:#FFFFFF;stroke-miterlimit:10;stroke-dasharray:3.9412,3.9412;}
	.st3{fill:#FFFFFF;}
	.st4{display:none;}
	.st5{display:inline;}
	.st6{display:inline;fill:#FFFFFF;}
	.st7{font-family:'OpenSans-Bold';}
	.st8{font-size:54.2776px;}
	.st9{letter-spacing:-4;}
</style>
<g id="Layer_1">
	<g>
		<path class="st0" d="M-109.2,286.9h-80.7c-2.8,0-5.2-2.3-5.2-5.2v-80.7c0-2.8,2.3-5.2,5.2-5.2h80.7c2.8,0,5.2,2.3,5.2,5.2v80.7
			C-104,284.6-106.3,286.9-109.2,286.9z"/>
		<g>
			<g>
				<line class="st1" x1="-195" y1="219.6" x2="-193" y2="219.6"/>
				<line class="st2" x1="-189.1" y1="219.6" x2="-128" y2="219.6"/>
				<line class="st1" x1="-126" y1="219.6" x2="-124" y2="219.6"/>
			</g>
		</g>
		<g>
			<g>
				<line class="st1" x1="-175" y1="262.3" x2="-173" y2="262.3"/>
				<line class="st2" x1="-169.1" y1="262.3" x2="-108" y2="262.3"/>
				<line class="st1" x1="-106" y1="262.3" x2="-104" y2="262.3"/>
			</g>
		</g>
		<g>
			<g>
				<line class="st1" x1="-184.8" y1="196.1" x2="-184.8" y2="198.1"/>
				<line class="st2" x1="-184.8" y1="202" x2="-184.8" y2="263.1"/>
				<line class="st1" x1="-184.8" y1="265.1" x2="-184.8" y2="267.1"/>
			</g>
		</g>
		<g>
			<g>
				<line class="st1" x1="-112" y1="195.9" x2="-112" y2="197.9"/>
				<line class="st2" x1="-112" y1="201.8" x2="-112" y2="262.9"/>
				<line class="st1" x1="-112" y1="264.9" x2="-112" y2="266.9"/>
			</g>
		</g>
		<g>
			<g>
				<line class="st1" x1="-144.2" y1="216.1" x2="-144.2" y2="218.1"/>
				<line class="st2" x1="-144.2" y1="222" x2="-144.2" y2="283.1"/>
				<line class="st1" x1="-144.2" y1="285.1" x2="-144.2" y2="287.1"/>
			</g>
		</g>
	</g>
	<g>
		<path class="st3" d="M-152,249.6c0,3.5-1.3,6.3-3.8,8.3c-2.5,2-6,3-10.5,3c-4.1,0-7.8-0.8-11-2.3v-7.6c2.6,1.2,4.8,2,6.6,2.5
			c1.8,0.5,3.5,0.7,5,0.7c1.8,0,3.2-0.3,4.1-1c1-0.7,1.4-1.7,1.4-3.1c0-0.8-0.2-1.4-0.6-2c-0.4-0.6-1-1.2-1.9-1.7
			c-0.8-0.5-2.5-1.4-5-2.6c-2.4-1.1-4.1-2.2-5.3-3.2c-1.2-1-2.1-2.2-2.8-3.6c-0.7-1.4-1.1-3-1.1-4.8c0-3.4,1.2-6.1,3.5-8.1
			c2.3-2,5.5-2.9,9.6-2.9c2,0,3.9,0.2,5.8,0.7c1.8,0.5,3.7,1.1,5.7,2l-2.7,6.4c-2.1-0.8-3.8-1.4-5.1-1.8c-1.4-0.3-2.7-0.5-4-0.5
			c-1.6,0-2.7,0.4-3.6,1.1c-0.8,0.7-1.2,1.7-1.2,2.8c0,0.7,0.2,1.4,0.5,1.9c0.3,0.5,0.9,1.1,1.6,1.6c0.7,0.5,2.5,1.4,5.2,2.7
			c3.6,1.7,6.1,3.5,7.4,5.2C-152.7,244.9-152,247-152,249.6z"/>
		<path class="st3" d="M-123.5,260.3h-8.2v-31.9h-10.5v-6.8h29.3v6.8h-10.5V260.3z"/>
	</g>
</g>
<g id="Calque_2" class="st4">
	<g class="st5">
		<path class="st0" d="M-109.2,286.9h-80.7c-2.8,0-5.2-2.3-5.2-5.2v-80.7c0-2.8,2.3-5.2,5.2-5.2h80.7c2.8,0,5.2,2.3,5.2,5.2v80.7
			C-104,284.6-106.3,286.9-109.2,286.9z"/>
		<g>
			<g>
				<line class="st1" x1="-195" y1="219.6" x2="-193" y2="219.6"/>
				<line class="st2" x1="-189.1" y1="219.6" x2="-128" y2="219.6"/>
				<line class="st1" x1="-126" y1="219.6" x2="-124" y2="219.6"/>
			</g>
		</g>
		<g>
			<g>
				<line class="st1" x1="-175" y1="262.3" x2="-173" y2="262.3"/>
				<line class="st2" x1="-169.1" y1="262.3" x2="-108" y2="262.3"/>
				<line class="st1" x1="-106" y1="262.3" x2="-104" y2="262.3"/>
			</g>
		</g>
		<g>
			<g>
				<line class="st1" x1="-184.8" y1="196.1" x2="-184.8" y2="198.1"/>
				<line class="st2" x1="-184.8" y1="202" x2="-184.8" y2="263.1"/>
				<line class="st1" x1="-184.8" y1="265.1" x2="-184.8" y2="267.1"/>
			</g>
		</g>
		<g>
			<g>
				<line class="st1" x1="-112" y1="195.9" x2="-112" y2="197.9"/>
				<line class="st2" x1="-112" y1="201.8" x2="-112" y2="262.9"/>
				<line class="st1" x1="-112" y1="264.9" x2="-112" y2="266.9"/>
			</g>
		</g>
		<g>
			<g>
				<line class="st1" x1="-144.2" y1="216.1" x2="-144.2" y2="218.1"/>
				<line class="st2" x1="-144.2" y1="222" x2="-144.2" y2="283.1"/>
				<line class="st1" x1="-144.2" y1="285.1" x2="-144.2" y2="287.1"/>
			</g>
		</g>
	</g>
	<text transform="matrix(1 0 0 1 -185.4959 260.3112)" class="st6 st7 st8 st9">OB</text>
</g>
<g id="Calque_2_-_copie" class="st4">
	<g class="st5">
		<path class="st0" d="M-109.2,286.9h-80.7c-2.8,0-5.2-2.3-5.2-5.2v-80.7c0-2.8,2.3-5.2,5.2-5.2h80.7c2.8,0,5.2,2.3,5.2,5.2v80.7
			C-104,284.6-106.3,286.9-109.2,286.9z"/>
		<g>
			<g>
				<line class="st1" x1="-195" y1="219.6" x2="-193" y2="219.6"/>
				<line class="st2" x1="-189.1" y1="219.6" x2="-128" y2="219.6"/>
				<line class="st1" x1="-126" y1="219.6" x2="-124" y2="219.6"/>
			</g>
		</g>
		<g>
			<g>
				<line class="st1" x1="-175" y1="262.3" x2="-173" y2="262.3"/>
				<line class="st2" x1="-169.1" y1="262.3" x2="-108" y2="262.3"/>
				<line class="st1" x1="-106" y1="262.3" x2="-104" y2="262.3"/>
			</g>
		</g>
		<g>
			<g>
				<line class="st1" x1="-184.8" y1="196.1" x2="-184.8" y2="198.1"/>
				<line class="st2" x1="-184.8" y1="202" x2="-184.8" y2="263.1"/>
				<line class="st1" x1="-184.8" y1="265.1" x2="-184.8" y2="267.1"/>
			</g>
		</g>
		<g>
			<g>
				<line class="st1" x1="-112" y1="195.9" x2="-112" y2="197.9"/>
				<line class="st2" x1="-112" y1="201.8" x2="-112" y2="262.9"/>
				<line class="st1" x1="-112" y1="264.9" x2="-112" y2="266.9"/>
			</g>
		</g>
		<g>
			<g>
				<line class="st1" x1="-144.2" y1="216.1" x2="-144.2" y2="218.1"/>
				<line class="st2" x1="-144.2" y1="222" x2="-144.2" y2="283.1"/>
				<line class="st1" x1="-144.2" y1="285.1" x2="-144.2" y2="287.1"/>
			</g>
		</g>
	</g>
	<text transform="matrix(1 0 0 1 -185.4959 260.3112)" class="st6 st7 st8 st9">OB</text>
</g>
</svg>
